<?xml version="1.0" standalone="no"?>
<!DOCTYPE svg PUBLIC "-//W3C//DTD SVG 20010904//EN"
 "http://www.w3.org/TR/2001/REC-SVG-20010904/DTD/svg10.dtd">
<svg version="1.0" xmlns="http://www.w3.org/2000/svg"
 width="500.000000pt" height="500.000000pt" viewBox="0 0 500.000000 500.000000"
 preserveAspectRatio="xMidYMid meet">

<g transform="translate(0.000000,500.000000) scale(0.100000,-0.100000)"
fill="#000000" stroke="none">
<path d="M2294 2836 c-24 -18 -11 -48 18 -44 14 2 24 11 26 24 4 26 -20 37
-44 20z"/>
<path d="M2389 2838 c-1 -2 -3 -12 -4 -23 -3 -33 -47 -179 -57 -190 -17 -19
-7 -25 43 -25 39 0 50 3 46 14 -3 7 8 56 24 107 16 52 27 100 24 106 -3 11
-72 20 -76 11z"/>
<path d="M2138 2790 c-14 -11 -33 -20 -42 -20 -19 0 -21 -11 -5 -27 8 -8 7
-25 -6 -62 -13 -41 -14 -55 -5 -66 14 -17 63 -20 91 -5 23 13 25 30 4 30 -30
0 -7 95 26 103 22 6 26 27 5 27 -8 0 -13 8 -12 17 2 25 -26 27 -56 3z"/>
<path d="M2536 2801 c-3 -5 -22 -16 -41 -26 -30 -14 -34 -19 -24 -31 9 -11 9
-24 0 -53 -6 -21 -11 -47 -11 -59 0 -36 63 -44 101 -12 l24 19 -22 1 c-27 0
-27 0 -11 52 8 26 20 43 35 49 26 10 31 29 8 29 -8 0 -15 9 -15 20 0 20 -33
29 -44 11z"/>
<path d="M2675 2772 c-55 -11 -96 -91 -73 -139 12 -24 20 -28 52 -27 31 1 37
-2 33 -16 -11 -43 44 -66 94 -40 23 13 25 30 4 30 -19 0 -19 1 10 93 14 43 25
83 25 89 0 7 -14 8 -39 4 -22 -3 -50 -2 -63 2 -13 5 -32 6 -43 4z m49 -59
c-13 -53 -24 -74 -35 -67 -13 7 -5 60 12 81 19 22 30 15 23 -14z"/>
<path d="M2243 2764 c-7 -3 -9 -12 -6 -20 6 -16 -15 -103 -28 -118 -18 -20 -8
-26 42 -26 41 0 50 3 46 15 -4 8 3 40 14 72 11 32 17 63 15 70 -5 13 -58 17
-83 7z"/>
</g>
</svg>
